<svg xmlns="http://www.w3.org/2000/svg" viewBox="0 0 512 512">
  <defs>
    <linearGradient id="bg" x1="0" x2="1" y1="0" y2="1">
      <stop offset="0%" stop-color="#125046"/>
      <stop offset="100%" stop-color="#0f5f4b"/>
    </linearGradient>
    <linearGradient id="bars" x1="0" x2="0" y1="0" y2="1">
      <stop offset="0%" stop-color="#ef8e45"/>
      <stop offset="100%" stop-color="#f5d77d"/>
    </linearGradient>
  </defs>
  <rect width="512" height="512" rx="116" fill="url(#bg)"/>
  <circle cx="398" cy="116" r="58" fill="#ffffff" opacity="0.08"/>
  <path d="M120 348c0-10 8-18 18-18h24c10 0 18 8 18 18v60c0 10-8 18-18 18h-24c-10 0-18-8-18-18z" fill="url(#bars)"/>
  <path d="M220 278c0-10 8-18 18-18h24c10 0 18 8 18 18v130c0 10-8 18-18 18h-24c-10 0-18-8-18-18z" fill="url(#bars)"/>
  <path d="M320 208c0-10 8-18 18-18h24c10 0 18 8 18 18v200c0 10-8 18-18 18h-24c-10 0-18-8-18-18z" fill="url(#bars)"/>
  <path d="M134 182c10-52 51-92 104-102 39-7 79 2 111 24" fill="none" stroke="#ffffff" stroke-linecap="round" stroke-width="26"/>
  <path d="M332 84h64v64" fill="none" stroke="#ffffff" stroke-linecap="round" stroke-linejoin="round" stroke-width="24"/>
</svg>
